# xmcd
#
# Track frame offsets: 
#        150
#        11032
#        20914
#        33446
#        45048
#        57252
#        67893
#        78081
#        88897
#        98088
#        108952
#        118042
#        128218
#        139317
#        146946
#        158702
#        168420
#        178531
#
# Disc length: 2486 seconds
#
# Revision: 1
# Processed by: cddbd v1.5.2PL0 Copyright (c) Steve Scherf et al.
# Submitted via: ExactAudioCopy v1.1
#
DISCID=ee09b412
DTITLE=Cash, Johnny - Folsom Prison Blues
DYEAR=2005
DGENRE=Country
TTITLE0=Cry, Cry, Cry
TTITLE1=Hey Porter
TTITLE2=Folsom Prison Blues
TTITLE3=So Doggone Lonesome
TTITLE4=I Walk The Line
TTITLE5=Train Of Love
TTITLE6=There You Go
TTITLE7=Belshazzar
TTITLE8=Down The Street To 301
TTITLE9=I Love You Because
TTITLE10=Blue Train
TTITLE11=You Win Again
TTITLE12=Oh Lonesome Me
TTITLE13=Hey, Good Looking
TTITLE14=Thanks A Lot
TTITLE15=The Story Of A Broken Heart
TTITLE16=Straight A's In Love
TTITLE17=The Wreck Of Old '97
EXTD=
EXTT0=
EXTT1=
EXTT2=
EXTT3=
EXTT4=
EXTT5=
EXTT6=
EXTT7=
EXTT8=
EXTT9=
EXTT10=
EXTT11=
EXTT12=
EXTT13=
EXTT14=
EXTT15=
EXTT16=
EXTT17=
PLAYORDER=
